<!--?xml version="1.0" standalone="no"?-->
<svg xmlns="http://www.w3.org/2000/svg" version="1.2" baseProfile="tiny" width="622" height="199">
[<rect x="0" y="0" width="621" height="198" fill="rgb(48,46,54)" fill-opacity="1"></rect>,<g transform="translate(556 185) rotate(204) scale(98 61)"><ellipse cx="0" cy="0" rx="1" ry="1" fill="rgb(255,234,171)" fill-opacity="0.5019607843137255"></ellipse></g>,<g transform="translate(66 78) rotate(170) scale(134 194)"><ellipse cx="0" cy="0" rx="1" ry="1" fill="rgb(0,0,3)" fill-opacity="0.5019607843137255"></ellipse></g>,<g transform="translate(330 39) rotate(274) scale(90 21)"><ellipse cx="0" cy="0" rx="1" ry="1" fill="rgb(194,187,181)" fill-opacity="0.5019607843137255"></ellipse></g>,<g transform="translate(407 12) rotate(183) scale(40 20)"><ellipse cx="0" cy="0" rx="1" ry="1" fill="rgb(255,181,167)" fill-opacity="0.5019607843137255"></ellipse></g>,<g transform="translate(575 37) rotate(200) scale(111 49)"><ellipse cx="0" cy="0" rx="1" ry="1" fill="rgb(0,0,12)" fill-opacity="0.5019607843137255"></ellipse></g>,<g transform="translate(472 193) rotate(208) scale(42 8)"><ellipse cx="0" cy="0" rx="1" ry="1" fill="rgb(188,176,133)" fill-opacity="0.5019607843137255"></ellipse></g>,<g transform="translate(301 100) rotate(239) scale(21 27)"><ellipse cx="0" cy="0" rx="1" ry="1" fill="rgb(156,149,141)" fill-opacity="0.5019607843137255"></ellipse></g>,<g transform="translate(311 11) rotate(200) scale(47 11)"><ellipse cx="0" cy="0" rx="1" ry="1" fill="rgb(174,174,160)" fill-opacity="0.5019607843137255"></ellipse></g>,<g transform="translate(480 79) rotate(160) scale(42 24)"><ellipse cx="0" cy="0" rx="1" ry="1" fill="rgb(118,107,93)" fill-opacity="0.5019607843137255"></ellipse></g>,<g transform="translate(414 94) rotate(277) scale(30 45)"><ellipse cx="0" cy="0" rx="1" ry="1" fill="rgb(120,57,70)" fill-opacity="0.5019607843137255"></ellipse></g>,<g transform="translate(207 145) rotate(359) scale(5 139)"><ellipse cx="0" cy="0" rx="1" ry="1" fill="rgb(255,255,224)" fill-opacity="0.5019607843137255"></ellipse></g>,<g transform="translate(366 137) rotate(228) scale(28 24)"><ellipse cx="0" cy="0" rx="1" ry="1" fill="rgb(0,0,12)" fill-opacity="0.5019607843137255"></ellipse></g>,<g transform="translate(481 122) rotate(20) scale(12 17)"><ellipse cx="0" cy="0" rx="1" ry="1" fill="rgb(200,185,163)" fill-opacity="0.5019607843137255"></ellipse></g>,<g transform="translate(240 144) rotate(223) scale(27 28)"><ellipse cx="0" cy="0" rx="1" ry="1" fill="rgb(0,0,15)" fill-opacity="0.5019607843137255"></ellipse></g>,<g transform="translate(450 158) rotate(119) scale(33 22)"><ellipse cx="0" cy="0" rx="1" ry="1" fill="rgb(59,58,66)" fill-opacity="0.5019607843137255"></ellipse></g>,<g transform="translate(269 186) rotate(231) scale(65 51)"><ellipse cx="0" cy="0" rx="1" ry="1" fill="rgb(0,7,24)" fill-opacity="0.5019607843137255"></ellipse></g>,<g transform="translate(583 148) rotate(360) scale(110 15)"><ellipse cx="0" cy="0" rx="1" ry="1" fill="rgb(176,159,120)" fill-opacity="0.5019607843137255"></ellipse></g>,<g transform="translate(501 136) rotate(295) scale(36 24)"><ellipse cx="0" cy="0" rx="1" ry="1" fill="rgb(176,162,140)" fill-opacity="0.5019607843137255"></ellipse></g>,<g transform="translate(438 17) rotate(209) scale(33 8)"><ellipse cx="0" cy="0" rx="1" ry="1" fill="rgb(255,200,191)" fill-opacity="0.5019607843137255"></ellipse></g>,<g transform="translate(171 57) rotate(360) scale(32 198)"><ellipse cx="0" cy="0" rx="1" ry="1" fill="rgb(4,9,34)" fill-opacity="0.5019607843137255"></ellipse></g>,<g transform="translate(385 32) rotate(256) scale(41 14)"><ellipse cx="0" cy="0" rx="1" ry="1" fill="rgb(133,69,72)" fill-opacity="0.5019607843137255"></ellipse></g>,<g transform="translate(531 109) rotate(84) scale(15 54)"><ellipse cx="0" cy="0" rx="1" ry="1" fill="rgb(87,99,100)" fill-opacity="0.5019607843137255"></ellipse></g>,<g transform="translate(414 147) rotate(318) scale(13 32)"><ellipse cx="0" cy="0" rx="1" ry="1" fill="rgb(0,0,9)" fill-opacity="0.5019607843137255"></ellipse></g>,<g transform="translate(578 108) rotate(2) scale(53 26)"><ellipse cx="0" cy="0" rx="1" ry="1" fill="rgb(25,51,66)" fill-opacity="0.5019607843137255"></ellipse></g>,<g transform="translate(257 107) rotate(182) scale(29 17)"><ellipse cx="0" cy="0" rx="1" ry="1" fill="rgb(102,105,94)" fill-opacity="0.5019607843137255"></ellipse></g>,<g transform="translate(533 111) rotate(256) scale(11 47)"><ellipse cx="0" cy="0" rx="1" ry="1" fill="rgb(120,115,111)" fill-opacity="0.5019607843137255"></ellipse></g>,<g transform="translate(298 58) rotate(121) scale(26 25)"><ellipse cx="0" cy="0" rx="1" ry="1" fill="rgb(72,43,58)" fill-opacity="0.5019607843137255"></ellipse></g>,<g transform="translate(358 184) rotate(291) scale(67 18)"><ellipse cx="0" cy="0" rx="1" ry="1" fill="rgb(0,0,20)" fill-opacity="0.5019607843137255"></ellipse></g>,<g transform="translate(545 74) rotate(238) scale(17 42)"><ellipse cx="0" cy="0" rx="1" ry="1" fill="rgb(0,1,23)" fill-opacity="0.5019607843137255"></ellipse></g>,<g transform="translate(577 33) rotate(277) scale(45 87)"><ellipse cx="0" cy="0" rx="1" ry="1" fill="rgb(0,10,30)" fill-opacity="0.5019607843137255"></ellipse></g>,<g transform="translate(290 32) rotate(268) scale(68 7)"><ellipse cx="0" cy="0" rx="1" ry="1" fill="rgb(137,141,124)" fill-opacity="0.5019607843137255"></ellipse></g>,<g transform="translate(57 109) rotate(171) scale(83 198)"><ellipse cx="0" cy="0" rx="1" ry="1" fill="rgb(0,0,26)" fill-opacity="0.5019607843137255"></ellipse></g>,<g transform="translate(517 134) rotate(270) scale(9 37)"><ellipse cx="0" cy="0" rx="1" ry="1" fill="rgb(219,194,169)" fill-opacity="0.5019607843137255"></ellipse></g>,<g transform="translate(368 68) rotate(92) scale(65 25)"><ellipse cx="0" cy="0" rx="1" ry="1" fill="rgb(33,21,39)" fill-opacity="0.5019607843137255"></ellipse></g>,<g transform="translate(328 154) rotate(84) scale(13 19)"><ellipse cx="0" cy="0" rx="1" ry="1" fill="rgb(163,170,157)" fill-opacity="0.5019607843137255"></ellipse></g>,<g transform="translate(396 109) rotate(182) scale(34 2)"><ellipse cx="0" cy="0" rx="1" ry="1" fill="rgb(255,251,229)" fill-opacity="0.5019607843137255"></ellipse></g>,<g transform="translate(487 28) rotate(128) scale(25 27)"><ellipse cx="0" cy="0" rx="1" ry="1" fill="rgb(0,21,39)" fill-opacity="0.5019607843137255"></ellipse></g>,<g transform="translate(261 58) rotate(157) scale(23 31)"><ellipse cx="0" cy="0" rx="1" ry="1" fill="rgb(27,1,25)" fill-opacity="0.5019607843137255"></ellipse></g>,<g transform="translate(305 141) rotate(142) scale(7 26)"><ellipse cx="0" cy="0" rx="1" ry="1" fill="rgb(14,14,30)" fill-opacity="0.5019607843137255"></ellipse></g>,<g transform="translate(315 134) rotate(140) scale(24 8)"><ellipse cx="0" cy="0" rx="1" ry="1" fill="rgb(19,10,28)" fill-opacity="0.5019607843137255"></ellipse></g>,<g transform="translate(386 37) rotate(0) scale(12 33)"><ellipse cx="0" cy="0" rx="1" ry="1" fill="rgb(145,91,88)" fill-opacity="0.5019607843137255"></ellipse></g>,<g transform="translate(331 39) rotate(200) scale(12 23)"><ellipse cx="0" cy="0" rx="1" ry="1" fill="rgb(152,151,145)" fill-opacity="0.5019607843137255"></ellipse></g>,<g transform="translate(410 198) rotate(354) scale(46 11)"><ellipse cx="0" cy="0" rx="1" ry="1" fill="rgb(0,0,12)" fill-opacity="0.5019607843137255"></ellipse></g>,<g transform="translate(418 45) rotate(95) scale(18 19)"><ellipse cx="0" cy="0" rx="1" ry="1" fill="rgb(0,0,9)" fill-opacity="0.5019607843137255"></ellipse></g>,<g transform="translate(455 35) rotate(74) scale(20 6)"><ellipse cx="0" cy="0" rx="1" ry="1" fill="rgb(130,154,156)" fill-opacity="0.5019607843137255"></ellipse></g>,<g transform="translate(458 111) rotate(83) scale(72 13)"><ellipse cx="0" cy="0" rx="1" ry="1" fill="rgb(52,41,56)" fill-opacity="0.5019607843137255"></ellipse></g>,<g transform="translate(451 125) rotate(48) scale(23 20)"><ellipse cx="0" cy="0" rx="1" ry="1" fill="rgb(103,64,74)" fill-opacity="0.5019607843137255"></ellipse></g>,<g transform="translate(521 113) rotate(328) scale(9 12)"><ellipse cx="0" cy="0" rx="1" ry="1" fill="rgb(48,54,54)" fill-opacity="0.5019607843137255"></ellipse></g>,<g transform="translate(507 91) rotate(192) scale(22 11)"><ellipse cx="0" cy="0" rx="1" ry="1" fill="rgb(37,44,46)" fill-opacity="0.5019607843137255"></ellipse></g>,<g transform="translate(206 115) rotate(180) scale(5 77)"><ellipse cx="0" cy="0" rx="1" ry="1" fill="rgb(213,185,151)" fill-opacity="0.5019607843137255"></ellipse></g>,<g transform="translate(401 93) rotate(36) scale(17 10)"><ellipse cx="0" cy="0" rx="1" ry="1" fill="rgb(32,15,32)" fill-opacity="0.5019607843137255"></ellipse></g>,<g transform="translate(413 0) rotate(195) scale(32 12)"><ellipse cx="0" cy="0" rx="1" ry="1" fill="rgb(255,179,168)" fill-opacity="0.5019607843137255"></ellipse></g>,<g transform="translate(338 15) rotate(1) scale(14 26)"><ellipse cx="0" cy="0" rx="1" ry="1" fill="rgb(167,172,172)" fill-opacity="0.5019607843137255"></ellipse></g>,<g transform="translate(444 47) rotate(74) scale(16 10)"><ellipse cx="0" cy="0" rx="1" ry="1" fill="rgb(0,2,22)" fill-opacity="0.5019607843137255"></ellipse></g>,<g transform="translate(398 181) rotate(95) scale(33 10)"><ellipse cx="0" cy="0" rx="1" ry="1" fill="rgb(98,102,107)" fill-opacity="0.5019607843137255"></ellipse></g>,<g transform="translate(475 91) rotate(140) scale(4 22)"><ellipse cx="0" cy="0" rx="1" ry="1" fill="rgb(128,144,151)" fill-opacity="0.5019607843137255"></ellipse></g>,<g transform="translate(155 107) rotate(181) scale(50 20)"><ellipse cx="0" cy="0" rx="1" ry="1" fill="rgb(29,38,48)" fill-opacity="0.5019607843137255"></ellipse></g>,<g transform="translate(217 48) rotate(126) scale(7 10)"><ellipse cx="0" cy="0" rx="1" ry="1" fill="rgb(0,0,20)" fill-opacity="0.5019607843137255"></ellipse></g>,<g transform="translate(349 61) rotate(176) scale(6 27)"><ellipse cx="0" cy="0" rx="1" ry="1" fill="rgb(0,7,23)" fill-opacity="0.5019607843137255"></ellipse></g>,<g transform="translate(506 198) rotate(218) scale(40 48)"><ellipse cx="0" cy="0" rx="1" ry="1" fill="rgb(166,151,115)" fill-opacity="0.5019607843137255"></ellipse></g>,<g transform="translate(621 151) rotate(91) scale(17 69)"><ellipse cx="0" cy="0" rx="1" ry="1" fill="rgb(139,130,99)" fill-opacity="0.5019607843137255"></ellipse></g>,<g transform="translate(333 195) rotate(91) scale(8 120)"><ellipse cx="0" cy="0" rx="1" ry="1" fill="rgb(0,0,18)" fill-opacity="0.5019607843137255"></ellipse></g>,<g transform="translate(485 67) rotate(182) scale(34 14)"><ellipse cx="0" cy="0" rx="1" ry="1" fill="rgb(112,113,93)" fill-opacity="0.5019607843137255"></ellipse></g>,<g transform="translate(388 158) rotate(18) scale(3 6)"><ellipse cx="0" cy="0" rx="1" ry="1" fill="rgb(149,153,160)" fill-opacity="0.5019607843137255"></ellipse></g>,<g transform="translate(293 17) rotate(220) scale(32 5)"><ellipse cx="0" cy="0" rx="1" ry="1" fill="rgb(54,32,43)" fill-opacity="0.5019607843137255"></ellipse></g>,<g transform="translate(10 71) rotate(342) scale(101 195)"><ellipse cx="0" cy="0" rx="1" ry="1" fill="rgb(0,7,25)" fill-opacity="0.5019607843137255"></ellipse></g>,<g transform="translate(473 3) rotate(70) scale(13 29)"><ellipse cx="0" cy="0" rx="1" ry="1" fill="rgb(0,4,23)" fill-opacity="0.5019607843137255"></ellipse></g>,<g transform="translate(259 48) rotate(1) scale(4 22)"><ellipse cx="0" cy="0" rx="1" ry="1" fill="rgb(103,120,99)" fill-opacity="0.5019607843137255"></ellipse></g>,<g transform="translate(433 51) rotate(142) scale(19 16)"><ellipse cx="0" cy="0" rx="1" ry="1" fill="rgb(0,6,28)" fill-opacity="0.5019607843137255"></ellipse></g>,<g transform="translate(336 170) rotate(312) scale(10 11)"><ellipse cx="0" cy="0" rx="1" ry="1" fill="rgb(133,138,117)" fill-opacity="0.5019607843137255"></ellipse></g>,<g transform="translate(409 19) rotate(76) scale(6 23)"><ellipse cx="0" cy="0" rx="1" ry="1" fill="rgb(146,82,77)" fill-opacity="0.5019607843137255"></ellipse></g>,<g transform="translate(418 175) rotate(19) scale(7 41)"><ellipse cx="0" cy="0" rx="1" ry="1" fill="rgb(0,0,23)" fill-opacity="0.5019607843137255"></ellipse></g>,<g transform="translate(302 174) rotate(277) scale(11 62)"><ellipse cx="0" cy="0" rx="1" ry="1" fill="rgb(56,60,56)" fill-opacity="0.5019607843137255"></ellipse></g>,<g transform="translate(229 26) rotate(359) scale(21 79)"><ellipse cx="0" cy="0" rx="1" ry="1" fill="rgb(24,28,38)" fill-opacity="0.5019607843137255"></ellipse></g>,<g transform="translate(445 149) rotate(151) scale(15 6)"><ellipse cx="0" cy="0" rx="1" ry="1" fill="rgb(144,146,139)" fill-opacity="0.5019607843137255"></ellipse></g>,<g transform="translate(620 160) rotate(276) scale(26 34)"><ellipse cx="0" cy="0" rx="1" ry="1" fill="rgb(143,132,103)" fill-opacity="0.5019607843137255"></ellipse></g>,<g transform="translate(466 92) rotate(178) scale(8 33)"><ellipse cx="0" cy="0" rx="1" ry="1" fill="rgb(37,48,63)" fill-opacity="0.5019607843137255"></ellipse></g>,<g transform="translate(289 127) rotate(1) scale(76 9)"><ellipse cx="0" cy="0" rx="1" ry="1" fill="rgb(42,21,38)" fill-opacity="0.5019607843137255"></ellipse></g>,<g transform="translate(308 64) rotate(96) scale(17 11)"><ellipse cx="0" cy="0" rx="1" ry="1" fill="rgb(16,0,10)" fill-opacity="0.5019607843137255"></ellipse></g>,<g transform="translate(358 84) rotate(360) scale(9 59)"><ellipse cx="0" cy="0" rx="1" ry="1" fill="rgb(0,0,18)" fill-opacity="0.5019607843137255"></ellipse></g>,<g transform="translate(500 146) rotate(274) scale(1 62)"><ellipse cx="0" cy="0" rx="1" ry="1" fill="rgb(204,188,174)" fill-opacity="0.5019607843137255"></ellipse></g>,<g transform="translate(327 106) rotate(3) scale(18 17)"><ellipse cx="0" cy="0" rx="1" ry="1" fill="rgb(132,127,125)" fill-opacity="0.5019607843137255"></ellipse></g>,<g transform="translate(553 68) rotate(326) scale(27 28)"><ellipse cx="0" cy="0" rx="1" ry="1" fill="rgb(1,13,30)" fill-opacity="0.5019607843137255"></ellipse></g>,<g transform="translate(79 105) rotate(272) scale(17 64)"><ellipse cx="0" cy="0" rx="1" ry="1" fill="rgb(12,23,38)" fill-opacity="0.5019607843137255"></ellipse></g>,<g transform="translate(494 58) rotate(359) scale(20 4)"><ellipse cx="0" cy="0" rx="1" ry="1" fill="rgb(200,174,131)" fill-opacity="0.5019607843137255"></ellipse></g>,<g transform="translate(464 24) rotate(118) scale(5 8)"><ellipse cx="0" cy="0" rx="1" ry="1" fill="rgb(159,189,177)" fill-opacity="0.5019607843137255"></ellipse></g>,<g transform="translate(586 198) rotate(80) scale(16 80)"><ellipse cx="0" cy="0" rx="1" ry="1" fill="rgb(133,122,90)" fill-opacity="0.5019607843137255"></ellipse></g>,<g transform="translate(329 39) rotate(264) scale(84 12)"><ellipse cx="0" cy="0" rx="1" ry="1" fill="rgb(137,135,129)" fill-opacity="0.5019607843137255"></ellipse></g>,<g transform="translate(564 106) rotate(209) scale(8 5)"><ellipse cx="0" cy="0" rx="1" ry="1" fill="rgb(165,169,172)" fill-opacity="0.5019607843137255"></ellipse></g>,<g transform="translate(191 193) rotate(240) scale(9 9)"><ellipse cx="0" cy="0" rx="1" ry="1" fill="rgb(0,0,16)" fill-opacity="0.5019607843137255"></ellipse></g>,<g transform="translate(19 183) rotate(202) scale(11 6)"><ellipse cx="0" cy="0" rx="1" ry="1" fill="rgb(30,46,57)" fill-opacity="0.5019607843137255"></ellipse></g>,<g transform="translate(441 55) rotate(132) scale(12 22)"><ellipse cx="0" cy="0" rx="1" ry="1" fill="rgb(4,19,36)" fill-opacity="0.5019607843137255"></ellipse></g>,<g transform="translate(430 91) rotate(132) scale(18 13)"><ellipse cx="0" cy="0" rx="1" ry="1" fill="rgb(62,29,41)" fill-opacity="0.5019607843137255"></ellipse></g>,<g transform="translate(495 186) rotate(271) scale(8 47)"><ellipse cx="0" cy="0" rx="1" ry="1" fill="rgb(175,159,130)" fill-opacity="0.5019607843137255"></ellipse></g>,<g transform="translate(208 195) rotate(185) scale(3 30)"><ellipse cx="0" cy="0" rx="1" ry="1" fill="rgb(255,229,209)" fill-opacity="0.5019607843137255"></ellipse></g>,<g transform="translate(546 142) rotate(86) scale(8 62)"><ellipse cx="0" cy="0" rx="1" ry="1" fill="rgb(172,154,120)" fill-opacity="0.5019607843137255"></ellipse></g>,<g transform="translate(613 105) rotate(200) scale(39 27)"><ellipse cx="0" cy="0" rx="1" ry="1" fill="rgb(0,40,55)" fill-opacity="0.5019607843137255"></ellipse></g>,<g transform="translate(568 127) rotate(275) scale(5 26)"><ellipse cx="0" cy="0" rx="1" ry="1" fill="rgb(5,5,25)" fill-opacity="0.5019607843137255"></ellipse></g>,<g transform="translate(486 79) rotate(335) scale(18 11)"><ellipse cx="0" cy="0" rx="1" ry="1" fill="rgb(68,68,58)" fill-opacity="0.5019607843137255"></ellipse></g>,<g transform="translate(294 148) rotate(41) scale(24 13)"><ellipse cx="0" cy="0" rx="1" ry="1" fill="rgb(0,1,21)" fill-opacity="0.5019607843137255"></ellipse></g>,<g transform="translate(412 71) rotate(15) scale(24 7)"><ellipse cx="0" cy="0" rx="1" ry="1" fill="rgb(132,78,81)" fill-opacity="0.5019607843137255"></ellipse></g>,<g transform="translate(344 1) rotate(165) scale(8 9)"><ellipse cx="0" cy="0" rx="1" ry="1" fill="rgb(200,206,212)" fill-opacity="0.5019607843137255"></ellipse></g>,<g transform="translate(467 78) rotate(274) scale(15 2)"><ellipse cx="0" cy="0" rx="1" ry="1" fill="rgb(121,140,140)" fill-opacity="0.5019607843137255"></ellipse></g>,<g transform="translate(464 153) rotate(267) scale(19 3)"><ellipse cx="0" cy="0" rx="1" ry="1" fill="rgb(0,4,21)" fill-opacity="0.5019607843137255"></ellipse></g>,<g transform="translate(188 103) rotate(10) scale(13 26)"><ellipse cx="0" cy="0" rx="1" ry="1" fill="rgb(34,34,44)" fill-opacity="0.5019607843137255"></ellipse></g>,<g transform="translate(210 57) rotate(13) scale(1 6)"><ellipse cx="0" cy="0" rx="1" ry="1" fill="rgb(0,0,0)" fill-opacity="0.5019607843137255"></ellipse></g>,<g transform="translate(303 0) rotate(316) scale(12 53)"><ellipse cx="0" cy="0" rx="1" ry="1" fill="rgb(137,132,125)" fill-opacity="0.5019607843137255"></ellipse></g>,<g transform="translate(431 47) rotate(115) scale(19 18)"><ellipse cx="0" cy="0" rx="1" ry="1" fill="rgb(5,13,32)" fill-opacity="0.5019607843137255"></ellipse></g>,<g transform="translate(150 169) rotate(283) scale(50 50)"><ellipse cx="0" cy="0" rx="1" ry="1" fill="rgb(4,13,30)" fill-opacity="0.5019607843137255"></ellipse></g>,<g transform="translate(189 40) rotate(271) scale(60 16)"><ellipse cx="0" cy="0" rx="1" ry="1" fill="rgb(17,12,27)" fill-opacity="0.5019607843137255"></ellipse></g>,<g transform="translate(134 28) rotate(272) scale(75 17)"><ellipse cx="0" cy="0" rx="1" ry="1" fill="rgb(10,21,39)" fill-opacity="0.5019607843137255"></ellipse></g>,<g transform="translate(241 91) rotate(287) scale(4 19)"><ellipse cx="0" cy="0" rx="1" ry="1" fill="rgb(74,81,73)" fill-opacity="0.5019607843137255"></ellipse></g>,<g transform="translate(413 17) rotate(15) scale(13 5)"><ellipse cx="0" cy="0" rx="1" ry="1" fill="rgb(214,134,118)" fill-opacity="0.5019607843137255"></ellipse></g>,<g transform="translate(362 156) rotate(200) scale(16 19)"><ellipse cx="0" cy="0" rx="1" ry="1" fill="rgb(0,3,25)" fill-opacity="0.5019607843137255"></ellipse></g>,<g transform="translate(549 164) rotate(265) scale(14 31)"><ellipse cx="0" cy="0" rx="1" ry="1" fill="rgb(154,141,108)" fill-opacity="0.5019607843137255"></ellipse></g>,<g transform="translate(389 122) rotate(87) scale(8 28)"><ellipse cx="0" cy="0" rx="1" ry="1" fill="rgb(13,36,57)" fill-opacity="0.5019607843137255"></ellipse></g>,<g transform="translate(313 90) rotate(170) scale(28 11)"><ellipse cx="0" cy="0" rx="1" ry="1" fill="rgb(125,120,120)" fill-opacity="0.5019607843137255"></ellipse></g>,<g transform="translate(569 28) rotate(348) scale(64 54)"><ellipse cx="0" cy="0" rx="1" ry="1" fill="rgb(0,16,31)" fill-opacity="0.5019607843137255"></ellipse></g>,<g transform="translate(616 187) rotate(285) scale(1 9)"><ellipse cx="0" cy="0" rx="1" ry="1" fill="rgb(200,186,172)" fill-opacity="0.5019607843137255"></ellipse></g>,<g transform="translate(270 33) rotate(0) scale(8 24)"><ellipse cx="0" cy="0" rx="1" ry="1" fill="rgb(23,0,21)" fill-opacity="0.5019607843137255"></ellipse></g>,<g transform="translate(372 150) rotate(200) scale(17 30)"><ellipse cx="0" cy="0" rx="1" ry="1" fill="rgb(0,11,30)" fill-opacity="0.5019607843137255"></ellipse></g>,<g transform="translate(375 35) rotate(48) scale(11 6)"><ellipse cx="0" cy="0" rx="1" ry="1" fill="rgb(143,88,87)" fill-opacity="0.5019607843137255"></ellipse></g>,<g transform="translate(476 72) rotate(166) scale(24 5)"><ellipse cx="0" cy="0" rx="1" ry="1" fill="rgb(108,98,89)" fill-opacity="0.5019607843137255"></ellipse></g>,<g transform="translate(202 177) rotate(270) scale(119 3)"><ellipse cx="0" cy="0" rx="1" ry="1" fill="rgb(116,112,78)" fill-opacity="0.5019607843137255"></ellipse></g>,<g transform="translate(171 182) rotate(97) scale(7 30)"><ellipse cx="0" cy="0" rx="1" ry="1" fill="rgb(29,33,44)" fill-opacity="0.5019607843137255"></ellipse></g>,<g transform="translate(507 31) rotate(349) scale(35 22)"><ellipse cx="0" cy="0" rx="1" ry="1" fill="rgb(0,13,29)" fill-opacity="0.5019607843137255"></ellipse></g>,<g transform="translate(334 187) rotate(234) scale(7 10)"><ellipse cx="0" cy="0" rx="1" ry="1" fill="rgb(0,10,29)" fill-opacity="0.5019607843137255"></ellipse></g>,<g transform="translate(322 166) rotate(300) scale(10 5)"><ellipse cx="0" cy="0" rx="1" ry="1" fill="rgb(116,120,110)" fill-opacity="0.5019607843137255"></ellipse></g>,<g transform="translate(261 169) rotate(351) scale(22 20)"><ellipse cx="0" cy="0" rx="1" ry="1" fill="rgb(49,41,49)" fill-opacity="0.5019607843137255"></ellipse></g>,<g transform="translate(265 183) rotate(94) scale(3 51)"><ellipse cx="0" cy="0" rx="1" ry="1" fill="rgb(38,44,48)" fill-opacity="0.5019607843137255"></ellipse></g>,<g transform="translate(174 145) rotate(32) scale(27 24)"><ellipse cx="0" cy="0" rx="1" ry="1" fill="rgb(5,8,27)" fill-opacity="0.5019607843137255"></ellipse></g>,<g transform="translate(326 155) rotate(254) scale(5 16)"><ellipse cx="0" cy="0" rx="1" ry="1" fill="rgb(43,57,56)" fill-opacity="0.5019607843137255"></ellipse></g>,<g transform="translate(324 135) rotate(3) scale(26 6)"><ellipse cx="0" cy="0" rx="1" ry="1" fill="rgb(0,5,25)" fill-opacity="0.5019607843137255"></ellipse></g>,<g transform="translate(618 102) rotate(277) scale(7 26)"><ellipse cx="0" cy="0" rx="1" ry="1" fill="rgb(68,75,79)" fill-opacity="0.5019607843137255"></ellipse></g>,<g transform="translate(166 63) rotate(31) scale(16 34)"><ellipse cx="0" cy="0" rx="1" ry="1" fill="rgb(10,3,23)" fill-opacity="0.5019607843137255"></ellipse></g>,<g transform="translate(433 177) rotate(254) scale(2 9)"><ellipse cx="0" cy="0" rx="1" ry="1" fill="rgb(174,164,126)" fill-opacity="0.5019607843137255"></ellipse></g>,<g transform="translate(412 151) rotate(40) scale(30 7)"><ellipse cx="0" cy="0" rx="1" ry="1" fill="rgb(0,0,24)" fill-opacity="0.5019607843137255"></ellipse></g>,<g transform="translate(392 72) rotate(255) scale(26 5)"><ellipse cx="0" cy="0" rx="1" ry="1" fill="rgb(56,31,45)" fill-opacity="0.5019607843137255"></ellipse></g>,<g transform="translate(405 79) rotate(103) scale(11 41)"><ellipse cx="0" cy="0" rx="1" ry="1" fill="rgb(80,42,52)" fill-opacity="0.5019607843137255"></ellipse></g>,<g transform="translate(305 107) rotate(5) scale(19 13)"><ellipse cx="0" cy="0" rx="1" ry="1" fill="rgb(125,121,119)" fill-opacity="0.5019607843137255"></ellipse></g>,<g transform="translate(334 147) rotate(179) scale(13 5)"><ellipse cx="0" cy="0" rx="1" ry="1" fill="rgb(199,189,183)" fill-opacity="0.5019607843137255"></ellipse></g>,<g transform="translate(485 96) rotate(2) scale(2 5)"><ellipse cx="0" cy="0" rx="1" ry="1" fill="rgb(147,161,153)" fill-opacity="0.5019607843137255"></ellipse></g>,<g transform="translate(469 161) rotate(319) scale(4 4)"><ellipse cx="0" cy="0" rx="1" ry="1" fill="rgb(122,133,99)" fill-opacity="0.5019607843137255"></ellipse></g>,<g transform="translate(272 139) rotate(284) scale(8 18)"><ellipse cx="0" cy="0" rx="1" ry="1" fill="rgb(0,0,21)" fill-opacity="0.5019607843137255"></ellipse></g>,<g transform="translate(605 127) rotate(89) scale(6 34)"><ellipse cx="0" cy="0" rx="1" ry="1" fill="rgb(0,4,29)" fill-opacity="0.5019607843137255"></ellipse></g>,<g transform="translate(341 113) rotate(351) scale(2 8)"><ellipse cx="0" cy="0" rx="1" ry="1" fill="rgb(149,158,145)" fill-opacity="0.5019607843137255"></ellipse></g>,<g transform="translate(330 121) rotate(97) scale(3 15)"><ellipse cx="0" cy="0" rx="1" ry="1" fill="rgb(63,36,45)" fill-opacity="0.5019607843137255"></ellipse></g>,<g transform="translate(404 160) rotate(207) scale(8 4)"><ellipse cx="0" cy="0" rx="1" ry="1" fill="rgb(201,184,195)" fill-opacity="0.5019607843137255"></ellipse></g>,<g transform="translate(431 109) rotate(300) scale(3 6)"><ellipse cx="0" cy="0" rx="1" ry="1" fill="rgb(255,188,173)" fill-opacity="0.5019607843137255"></ellipse></g>,<g transform="translate(446 89) rotate(60) scale(18 15)"><ellipse cx="0" cy="0" rx="1" ry="1" fill="rgb(74,35,47)" fill-opacity="0.5019607843137255"></ellipse></g>,<g transform="translate(563 121) rotate(141) scale(12 12)"><ellipse cx="0" cy="0" rx="1" ry="1" fill="rgb(67,64,63)" fill-opacity="0.5019607843137255"></ellipse></g>,<g transform="translate(278 6) rotate(38) scale(17 6)"><ellipse cx="0" cy="0" rx="1" ry="1" fill="rgb(103,113,94)" fill-opacity="0.5019607843137255"></ellipse></g>,<g transform="translate(309 33) rotate(243) scale(16 5)"><ellipse cx="0" cy="0" rx="1" ry="1" fill="rgb(25,0,18)" fill-opacity="0.5019607843137255"></ellipse></g>,<g transform="translate(51 187) rotate(121) scale(63 28)"><ellipse cx="0" cy="0" rx="1" ry="1" fill="rgb(0,3,22)" fill-opacity="0.5019607843137255"></ellipse></g>,<g transform="translate(550 117) rotate(130) scale(8 18)"><ellipse cx="0" cy="0" rx="1" ry="1" fill="rgb(57,58,60)" fill-opacity="0.5019607843137255"></ellipse></g>,<g transform="translate(481 126) rotate(326) scale(13 4)"><ellipse cx="0" cy="0" rx="1" ry="1" fill="rgb(215,194,169)" fill-opacity="0.5019607843137255"></ellipse></g>,<g transform="translate(582 102) rotate(355) scale(7 11)"><ellipse cx="0" cy="0" rx="1" ry="1" fill="rgb(3,18,31)" fill-opacity="0.5019607843137255"></ellipse></g>,<g transform="translate(550 101) rotate(105) scale(4 20)"><ellipse cx="0" cy="0" rx="1" ry="1" fill="rgb(146,155,152)" fill-opacity="0.5019607843137255"></ellipse></g>,<g transform="translate(537 81) rotate(155) scale(17 10)"><ellipse cx="0" cy="0" rx="1" ry="1" fill="rgb(0,4,24)" fill-opacity="0.5019607843137255"></ellipse></g>,<g transform="translate(233 144) rotate(122) scale(9 24)"><ellipse cx="0" cy="0" rx="1" ry="1" fill="rgb(2,8,27)" fill-opacity="0.5019607843137255"></ellipse></g>,<g transform="translate(497 97) rotate(145) scale(7 22)"><ellipse cx="0" cy="0" rx="1" ry="1" fill="rgb(63,69,65)" fill-opacity="0.5019607843137255"></ellipse></g>,<g transform="translate(467 106) rotate(191) scale(3 32)"><ellipse cx="0" cy="0" rx="1" ry="1" fill="rgb(21,35,46)" fill-opacity="0.5019607843137255"></ellipse></g>,<g transform="translate(389 137) rotate(88) scale(16 33)"><ellipse cx="0" cy="0" rx="1" ry="1" fill="rgb(0,7,28)" fill-opacity="0.5019607843137255"></ellipse></g>,<g transform="translate(417 176) rotate(87) scale(30 8)"><ellipse cx="0" cy="0" rx="1" ry="1" fill="rgb(0,13,30)" fill-opacity="0.5019607843137255"></ellipse></g>,<g transform="translate(454 117) rotate(253) scale(4 28)"><ellipse cx="0" cy="0" rx="1" ry="1" fill="rgb(62,35,46)" fill-opacity="0.5019607843137255"></ellipse></g>,<g transform="translate(279 41) rotate(300) scale(7 5)"><ellipse cx="0" cy="0" rx="1" ry="1" fill="rgb(32,5,30)" fill-opacity="0.5019607843137255"></ellipse></g>,<g transform="translate(482 140) rotate(341) scale(6 21)"><ellipse cx="0" cy="0" rx="1" ry="1" fill="rgb(193,169,135)" fill-opacity="0.5019607843137255"></ellipse></g>,<g transform="translate(360 39) rotate(7) scale(5 113)"><ellipse cx="0" cy="0" rx="1" ry="1" fill="rgb(0,2,25)" fill-opacity="0.5019607843137255"></ellipse></g>,<g transform="translate(330 5) rotate(107) scale(40 9)"><ellipse cx="0" cy="0" rx="1" ry="1" fill="rgb(144,139,134)" fill-opacity="0.5019607843137255"></ellipse></g>,<g transform="translate(573 153) rotate(163) scale(50 11)"><ellipse cx="0" cy="0" rx="1" ry="1" fill="rgb(148,136,105)" fill-opacity="0.5019607843137255"></ellipse></g>,<g transform="translate(536 132) rotate(353) scale(10 9)"><ellipse cx="0" cy="0" rx="1" ry="1" fill="rgb(212,189,170)" fill-opacity="0.5019607843137255"></ellipse></g>,<g transform="translate(293 65) rotate(268) scale(46 5)"><ellipse cx="0" cy="0" rx="1" ry="1" fill="rgb(115,114,109)" fill-opacity="0.5019607843137255"></ellipse></g>,<g transform="translate(315 131) rotate(243) scale(4 16)"><ellipse cx="0" cy="0" rx="1" ry="1" fill="rgb(63,54,60)" fill-opacity="0.5019607843137255"></ellipse></g>,<g transform="translate(453 164) rotate(124) scale(8 9)"><ellipse cx="0" cy="0" rx="1" ry="1" fill="rgb(15,5,22)" fill-opacity="0.5019607843137255"></ellipse></g>,<g transform="translate(273 34) rotate(352) scale(9 26)"><ellipse cx="0" cy="0" rx="1" ry="1" fill="rgb(30,5,30)" fill-opacity="0.5019607843137255"></ellipse></g>,<g transform="translate(550 63) rotate(251) scale(32 29)"><ellipse cx="0" cy="0" rx="1" ry="1" fill="rgb(8,15,32)" fill-opacity="0.5019607843137255"></ellipse></g>,<g transform="translate(118 5) rotate(296) scale(32 20)"><ellipse cx="0" cy="0" rx="1" ry="1" fill="rgb(4,11,29)" fill-opacity="0.5019607843137255"></ellipse></g>,<g transform="translate(250 18) rotate(138) scale(9 18)"><ellipse cx="0" cy="0" rx="1" ry="1" fill="rgb(57,67,62)" fill-opacity="0.5019607843137255"></ellipse></g>,<g transform="translate(234 99) rotate(75) scale(22 13)"><ellipse cx="0" cy="0" rx="1" ry="1" fill="rgb(60,68,64)" fill-opacity="0.5019607843137255"></ellipse></g>,<g transform="translate(272 106) rotate(334) scale(25 9)"><ellipse cx="0" cy="0" rx="1" ry="1" fill="rgb(97,97,92)" fill-opacity="0.5019607843137255"></ellipse></g>,<g transform="translate(334 43) rotate(222) scale(19 1)"><ellipse cx="0" cy="0" rx="1" ry="1" fill="rgb(142,139,135)" fill-opacity="0.5019607843137255"></ellipse></g>,<g transform="translate(444 91) rotate(102) scale(5 15)"><ellipse cx="0" cy="0" rx="1" ry="1" fill="rgb(121,64,68)" fill-opacity="0.5019607843137255"></ellipse></g>,<g transform="translate(270 81) rotate(112) scale(10 16)"><ellipse cx="0" cy="0" rx="1" ry="1" fill="rgb(31,0,27)" fill-opacity="0.5019607843137255"></ellipse></g>,<g transform="translate(465 105) rotate(5) scale(7 12)"><ellipse cx="0" cy="0" rx="1" ry="1" fill="rgb(24,32,47)" fill-opacity="0.5019607843137255"></ellipse></g>,<g transform="translate(325 138) rotate(218) scale(4 4)"><ellipse cx="0" cy="0" rx="1" ry="1" fill="rgb(0,0,12)" fill-opacity="0.5019607843137255"></ellipse></g>,<g transform="translate(440 195) rotate(275) scale(5 30)"><ellipse cx="0" cy="0" rx="1" ry="1" fill="rgb(15,25,38)" fill-opacity="0.5019607843137255"></ellipse></g>,<g transform="translate(169 21) rotate(89) scale(12 19)"><ellipse cx="0" cy="0" rx="1" ry="1" fill="rgb(5,1,23)" fill-opacity="0.5019607843137255"></ellipse></g>,<g transform="translate(0 51) rotate(187) scale(32 43)"><ellipse cx="0" cy="0" rx="1" ry="1" fill="rgb(0,1,20)" fill-opacity="0.5019607843137255"></ellipse></g>,<g transform="translate(31 175) rotate(204) scale(15 18)"><ellipse cx="0" cy="0" rx="1" ry="1" fill="rgb(7,16,34)" fill-opacity="0.5019607843137255"></ellipse></g>,<g transform="translate(167 4) rotate(13) scale(36 5)"><ellipse cx="0" cy="0" rx="1" ry="1" fill="rgb(21,32,43)" fill-opacity="0.5019607843137255"></ellipse></g>,<g transform="translate(605 156) rotate(178) scale(34 8)"><ellipse cx="0" cy="0" rx="1" ry="1" fill="rgb(131,123,95)" fill-opacity="0.5019607843137255"></ellipse></g>,<g transform="translate(3 146) rotate(117) scale(26 17)"><ellipse cx="0" cy="0" rx="1" ry="1" fill="rgb(0,0,18)" fill-opacity="0.5019607843137255"></ellipse></g>,<g transform="translate(406 198) rotate(358) scale(11 11)"><ellipse cx="0" cy="0" rx="1" ry="1" fill="rgb(0,3,24)" fill-opacity="0.5019607843137255"></ellipse></g>,<g transform="translate(533 103) rotate(141) scale(4 2)"><ellipse cx="0" cy="0" rx="1" ry="1" fill="rgb(235,221,206)" fill-opacity="0.5019607843137255"></ellipse></g>,<g transform="translate(514 112) rotate(24) scale(25 3)"><ellipse cx="0" cy="0" rx="1" ry="1" fill="rgb(72,78,75)" fill-opacity="0.5019607843137255"></ellipse></g>,<g transform="translate(393 168) rotate(275) scale(8 20)"><ellipse cx="0" cy="0" rx="1" ry="1" fill="rgb(69,76,76)" fill-opacity="0.5019607843137255"></ellipse></g>,<g transform="translate(497 139) rotate(275) scale(13 21)"><ellipse cx="0" cy="0" rx="1" ry="1" fill="rgb(192,172,143)" fill-opacity="0.5019607843137255"></ellipse></g>,<g transform="translate(417 43) rotate(129) scale(9 22)"><ellipse cx="0" cy="0" rx="1" ry="1" fill="rgb(0,4,28)" fill-opacity="0.5019607843137255"></ellipse></g>,<g transform="translate(484 153) rotate(64) scale(5 13)"><ellipse cx="0" cy="0" rx="1" ry="1" fill="rgb(183,166,130)" fill-opacity="0.5019607843137255"></ellipse></g>,<g transform="translate(389 32) rotate(311) scale(6 12)"><ellipse cx="0" cy="0" rx="1" ry="1" fill="rgb(152,101,96)" fill-opacity="0.5019607843137255"></ellipse></g>,<g transform="translate(460 33) rotate(10) scale(4 15)"><ellipse cx="0" cy="0" rx="1" ry="1" fill="rgb(100,120,119)" fill-opacity="0.5019607843137255"></ellipse></g>,<g transform="translate(429 130) rotate(303) scale(3 19)"><ellipse cx="0" cy="0" rx="1" ry="1" fill="rgb(22,20,44)" fill-opacity="0.5019607843137255"></ellipse></g>,<g transform="translate(563 104) rotate(177) scale(12 2)"><ellipse cx="0" cy="0" rx="1" ry="1" fill="rgb(189,190,190)" fill-opacity="0.5019607843137255"></ellipse></g>,<g transform="translate(492 29) rotate(69) scale(11 32)"><ellipse cx="0" cy="0" rx="1" ry="1" fill="rgb(0,11,29)" fill-opacity="0.5019607843137255"></ellipse></g>,<g transform="translate(517 14) rotate(62) scale(41 41)"><ellipse cx="0" cy="0" rx="1" ry="1" fill="rgb(6,19,34)" fill-opacity="0.5019607843137255"></ellipse></g>,<g transform="translate(488 73) rotate(185) scale(35 5)"><ellipse cx="0" cy="0" rx="1" ry="1" fill="rgb(71,73,67)" fill-opacity="0.5019607843137255"></ellipse></g>,<g transform="translate(459 5) rotate(100) scale(9 16)"><ellipse cx="0" cy="0" rx="1" ry="1" fill="rgb(0,11,29)" fill-opacity="0.5019607843137255"></ellipse></g>,<g transform="translate(581 86) rotate(24) scale(12 8)"><ellipse cx="0" cy="0" rx="1" ry="1" fill="rgb(18,41,51)" fill-opacity="0.5019607843137255"></ellipse></g>,<g transform="translate(535 139) rotate(176) scale(46 4)"><ellipse cx="0" cy="0" rx="1" ry="1" fill="rgb(167,150,116)" fill-opacity="0.5019607843137255"></ellipse></g>,<g transform="translate(384 198) rotate(225) scale(34 8)"><ellipse cx="0" cy="0" rx="1" ry="1" fill="rgb(0,0,23)" fill-opacity="0.5019607843137255"></ellipse></g>,<g transform="translate(402 198) rotate(162) scale(38 8)"><ellipse cx="0" cy="0" rx="1" ry="1" fill="rgb(0,9,29)" fill-opacity="0.5019607843137255"></ellipse></g>,<g transform="translate(385 0) rotate(263) scale(32 2)"><ellipse cx="0" cy="0" rx="1" ry="1" fill="rgb(53,45,57)" fill-opacity="0.5019607843137255"></ellipse></g>,<g transform="translate(206 110) rotate(131) scale(4 4)"><ellipse cx="0" cy="0" rx="1" ry="1" fill="rgb(219,197,168)" fill-opacity="0.5019607843137255"></ellipse></g>,<g transform="translate(226 46) rotate(45) scale(14 21)"><ellipse cx="0" cy="0" rx="1" ry="1" fill="rgb(33,36,46)" fill-opacity="0.5019607843137255"></ellipse></g>,<g transform="translate(448 149) rotate(357) scale(14 5)"><ellipse cx="0" cy="0" rx="1" ry="1" fill="rgb(48,54,50)" fill-opacity="0.5019607843137255"></ellipse></g>,<g transform="translate(398 160) rotate(40) scale(11 7)"><ellipse cx="0" cy="0" rx="1" ry="1" fill="rgb(165,152,163)" fill-opacity="0.5019607843137255"></ellipse></g>,<g transform="translate(435 139) rotate(169) scale(36 3)"><ellipse cx="0" cy="0" rx="1" ry="1" fill="rgb(0,13,35)" fill-opacity="0.5019607843137255"></ellipse></g>,<g transform="translate(582 169) rotate(205) scale(18 3)"><ellipse cx="0" cy="0" rx="1" ry="1" fill="rgb(182,165,139)" fill-opacity="0.5019607843137255"></ellipse></g>,<g transform="translate(606 123) rotate(88) scale(1 20)"><ellipse cx="0" cy="0" rx="1" ry="1" fill="rgb(9,65,88)" fill-opacity="0.5019607843137255"></ellipse></g>,<g transform="translate(492 113) rotate(317) scale(20 1)"><ellipse cx="0" cy="0" rx="1" ry="1" fill="rgb(81,84,81)" fill-opacity="0.5019607843137255"></ellipse></g>,<g transform="translate(335 70) rotate(283) scale(27 5)"><ellipse cx="0" cy="0" rx="1" ry="1" fill="rgb(137,135,133)" fill-opacity="0.5019607843137255"></ellipse></g>,<g transform="translate(411 67) rotate(205) scale(18 2)"><ellipse cx="0" cy="0" rx="1" ry="1" fill="rgb(187,130,128)" fill-opacity="0.5019607843137255"></ellipse></g>,<g transform="translate(518 63) rotate(232) scale(4 1)"><ellipse cx="0" cy="0" rx="1" ry="1" fill="rgb(129,119,96)" fill-opacity="0.5019607843137255"></ellipse></g>,<g transform="translate(305 46) rotate(346) scale(4 31)"><ellipse cx="0" cy="0" rx="1" ry="1" fill="rgb(36,2,30)" fill-opacity="0.5019607843137255"></ellipse></g>,<g transform="translate(247 68) rotate(91) scale(23 8)"><ellipse cx="0" cy="0" rx="1" ry="1" fill="rgb(25,0,25)" fill-opacity="0.5019607843137255"></ellipse></g>,<g transform="translate(92 48) rotate(332) scale(29 37)"><ellipse cx="0" cy="0" rx="1" ry="1" fill="rgb(5,3,23)" fill-opacity="0.5019607843137255"></ellipse></g>,<g transform="translate(434 72) rotate(91) scale(1 10)"><ellipse cx="0" cy="0" rx="1" ry="1" fill="rgb(177,118,112)" fill-opacity="0.5019607843137255"></ellipse></g>,<g transform="translate(371 162) rotate(204) scale(11 21)"><ellipse cx="0" cy="0" rx="1" ry="1" fill="rgb(4,12,29)" fill-opacity="0.5019607843137255"></ellipse></g>,<g transform="translate(474 198) rotate(173) scale(40 3)"><ellipse cx="0" cy="0" rx="1" ry="1" fill="rgb(119,110,77)" fill-opacity="0.5019607843137255"></ellipse></g>,<g transform="translate(533 89) rotate(117) scale(2 25)"><ellipse cx="0" cy="0" rx="1" ry="1" fill="rgb(24,33,43)" fill-opacity="0.5019607843137255"></ellipse></g>,<g transform="translate(420 99) rotate(258) scale(4 26)"><ellipse cx="0" cy="0" rx="1" ry="1" fill="rgb(59,31,45)" fill-opacity="0.5019607843137255"></ellipse></g>,<g transform="translate(395 171) rotate(203) scale(20 12)"><ellipse cx="0" cy="0" rx="1" ry="1" fill="rgb(64,69,68)" fill-opacity="0.5019607843137255"></ellipse></g>,<g transform="translate(258 155) rotate(117) scale(7 7)"><ellipse cx="0" cy="0" rx="1" ry="1" fill="rgb(73,34,52)" fill-opacity="0.5019607843137255"></ellipse></g>,<g transform="translate(617 83) rotate(76) scale(6 32)"><ellipse cx="0" cy="0" rx="1" ry="1" fill="rgb(6,51,53)" fill-opacity="0.5019607843137255"></ellipse></g>,<g transform="translate(369 100) rotate(87) scale(22 1)"><ellipse cx="0" cy="0" rx="1" ry="1" fill="rgb(128,79,82)" fill-opacity="0.5019607843137255"></ellipse></g>,<g transform="translate(533 76) rotate(90) scale(17 12)"><ellipse cx="0" cy="0" rx="1" ry="1" fill="rgb(4,10,28)" fill-opacity="0.5019607843137255"></ellipse></g>,<g transform="translate(121 175) rotate(187) scale(41 16)"><ellipse cx="0" cy="0" rx="1" ry="1" fill="rgb(12,19,34)" fill-opacity="0.5019607843137255"></ellipse></g>,<g transform="translate(250 165) rotate(71) scale(3 15)"><ellipse cx="0" cy="0" rx="1" ry="1" fill="rgb(5,16,31)" fill-opacity="0.5019607843137255"></ellipse></g>,<g transform="translate(267 99) rotate(189) scale(14 5)"><ellipse cx="0" cy="0" rx="1" ry="1" fill="rgb(93,94,89)" fill-opacity="0.5019607843137255"></ellipse></g>,<g transform="translate(404 142) rotate(302) scale(10 27)"><ellipse cx="0" cy="0" rx="1" ry="1" fill="rgb(0,8,27)" fill-opacity="0.5019607843137255"></ellipse></g>,<g transform="translate(590 89) rotate(251) scale(12 13)"><ellipse cx="0" cy="0" rx="1" ry="1" fill="rgb(9,40,49)" fill-opacity="0.5019607843137255"></ellipse></g>,<g transform="translate(15 110) rotate(288) scale(25 20)"><ellipse cx="0" cy="0" rx="1" ry="1" fill="rgb(3,12,29)" fill-opacity="0.5019607843137255"></ellipse></g>,<g transform="translate(217 70) rotate(6) scale(4 22)"><ellipse cx="0" cy="0" rx="1" ry="1" fill="rgb(13,0,22)" fill-opacity="0.5019607843137255"></ellipse></g>,<g transform="translate(408 107) rotate(180) scale(18 1)"><ellipse cx="0" cy="0" rx="1" ry="1" fill="rgb(255,180,163)" fill-opacity="0.5019607843137255"></ellipse></g>,<g transform="translate(330 0) rotate(142) scale(6 40)"><ellipse cx="0" cy="0" rx="1" ry="1" fill="rgb(165,169,169)" fill-opacity="0.5019607843137255"></ellipse></g>,<g transform="translate(333 154) rotate(174) scale(11 7)"><ellipse cx="0" cy="0" rx="1" ry="1" fill="rgb(47,58,57)" fill-opacity="0.5019607843137255"></ellipse></g>,<g transform="translate(510 170) rotate(183) scale(38 20)"><ellipse cx="0" cy="0" rx="1" ry="1" fill="rgb(163,148,112)" fill-opacity="0.5019607843137255"></ellipse></g>,<g transform="translate(298 82) rotate(105) scale(4 8)"><ellipse cx="0" cy="0" rx="1" ry="1" fill="rgb(128,127,123)" fill-opacity="0.5019607843137255"></ellipse></g>,<g transform="translate(297 160) rotate(148) scale(14 17)"><ellipse cx="0" cy="0" rx="1" ry="1" fill="rgb(12,15,32)" fill-opacity="0.5019607843137255"></ellipse></g>,<g transform="translate(553 116) rotate(23) scale(23 9)"><ellipse cx="0" cy="0" rx="1" ry="1" fill="rgb(65,67,69)" fill-opacity="0.5019607843137255"></ellipse></g>,<g transform="translate(554 126) rotate(77) scale(4 9)"><ellipse cx="0" cy="0" rx="1" ry="1" fill="rgb(48,54,61)" fill-opacity="0.5019607843137255"></ellipse></g>,<g transform="translate(354 180) rotate(180) scale(3 8)"><ellipse cx="0" cy="0" rx="1" ry="1" fill="rgb(117,113,84)" fill-opacity="0.5019607843137255"></ellipse></g>,<g transform="translate(542 174) rotate(21) scale(38 16)"><ellipse cx="0" cy="0" rx="1" ry="1" fill="rgb(158,144,111)" fill-opacity="0.5019607843137255"></ellipse></g>,<g transform="translate(153 198) rotate(93) scale(9 49)"><ellipse cx="0" cy="0" rx="1" ry="1" fill="rgb(0,3,23)" fill-opacity="0.5019607843137255"></ellipse></g>,<g transform="translate(366 123) rotate(137) scale(10 31)"><ellipse cx="0" cy="0" rx="1" ry="1" fill="rgb(8,14,32)" fill-opacity="0.5019607843137255"></ellipse></g>,<g transform="translate(388 60) rotate(360) scale(1 47)"><ellipse cx="0" cy="0" rx="1" ry="1" fill="rgb(6,15,36)" fill-opacity="0.5019607843137255"></ellipse></g>,<g transform="translate(59 0) rotate(173) scale(51 17)"><ellipse cx="0" cy="0" rx="1" ry="1" fill="rgb(5,16,31)" fill-opacity="0.5019607843137255"></ellipse></g>,<g transform="translate(416 74) rotate(290) scale(6 21)"><ellipse cx="0" cy="0" rx="1" ry="1" fill="rgb(85,43,52)" fill-opacity="0.5019607843137255"></ellipse></g>,<g transform="translate(377 116) rotate(260) scale(5 9)"><ellipse cx="0" cy="0" rx="1" ry="1" fill="rgb(102,97,94)" fill-opacity="0.5019607843137255"></ellipse></g>,<g transform="translate(106 158) rotate(310) scale(13 16)"><ellipse cx="0" cy="0" rx="1" ry="1" fill="rgb(2,6,24)" fill-opacity="0.5019607843137255"></ellipse></g>,<g transform="translate(471 22) rotate(314) scale(2 4)"><ellipse cx="0" cy="0" rx="1" ry="1" fill="rgb(133,146,139)" fill-opacity="0.5019607843137255"></ellipse></g>,<g transform="translate(288 11) rotate(4) scale(4 38)"><ellipse cx="0" cy="0" rx="1" ry="1" fill="rgb(102,101,91)" fill-opacity="0.5019607843137255"></ellipse></g>,<g transform="translate(534 113) rotate(118) scale(8 11)"><ellipse cx="0" cy="0" rx="1" ry="1" fill="rgb(69,71,70)" fill-opacity="0.5019607843137255"></ellipse></g>,<g transform="translate(568 96) rotate(355) scale(11 1)"><ellipse cx="0" cy="0" rx="1" ry="1" fill="rgb(229,220,226)" fill-opacity="0.5019607843137255"></ellipse></g>]</svg>