<?xml version="1.0" encoding="UTF-8"?>
<svg width="601px" height="94px" viewBox="0 0 601 94" version="1.1" xmlns="http://www.w3.org/2000/svg" xmlns:xlink="http://www.w3.org/1999/xlink">
    <!-- Generator: Sketch 47.1 (45422) - http://www.bohemiancoding.com/sketch -->
    <title>yoc-logo_inverse</title>
    <desc>Created with Sketch.</desc>
    <defs></defs>
    <g id="Logo-Design" stroke="none" stroke-width="1" fill="none" fill-rule="evenodd">
        <g id="yoc-logo_inverse">
            <g id="Group-3">
                <path d="M120.493247,60.0586166 C122.84098,60.0586166 124.913557,59.7831212 126.71104,59.2321219 C128.508523,58.6811227 130.030858,58.0750326 131.278091,57.4138335 L133.809228,66.5603751 C132.195162,67.3685074 130.067561,68.103162 127.426361,68.7643611 C124.785162,69.4255602 121.887222,69.7561547 118.732456,69.7561547 C114.844024,69.7561547 111.212429,69.1867974 107.837563,68.0480657 C104.462697,66.9093339 101.528075,65.2012619 99.0336083,62.9237984 C96.5391421,60.6463348 94.5766136,57.8179145 93.1459639,54.4384525 C91.7153141,51.0589905 91,47.1285883 91,42.6471278 C91,38.5330001 91.6786314,34.7862615 93.0359144,31.4067995 C94.3931975,28.0273375 96.3007019,25.1438181 98.7584847,22.7561547 C101.216268,20.3684914 104.15089,18.5318548 107.562439,17.2461899 C110.973988,15.960525 114.733973,15.3177022 118.842506,15.3177022 C121.116872,15.3177022 123.464569,15.5380986 125.885669,15.978898 C128.306769,16.4196974 130.911246,17.301283 133.699178,18.6236811 L130.947943,27.880422 C129.26051,26.9253567 127.536419,26.1907021 125.77562,25.6764361 C124.01482,25.1621702 122.180681,24.905041 120.273148,24.905041 C115.430949,24.905041 111.542575,26.3927167 108.607909,29.3681125 C105.673243,32.3435084 104.205931,36.6596044 104.205931,42.3165299 C104.205931,45.6225253 104.682808,48.4142129 105.636574,50.6916764 C106.590341,52.96914 107.837555,54.8057765 109.378255,56.2016413 C110.918954,57.597506 112.661386,58.5892898 114.605603,59.1770223 C116.549819,59.7647548 118.512347,60.0586166 120.493247,60.0586166 Z M183.665058,42.0961313 C183.665058,46.4306586 182.986426,50.3243282 181.629143,53.7772567 C180.27186,57.2301853 178.382697,60.1320711 175.961598,62.4830012 C173.540498,64.8339313 170.715924,66.6338351 167.487792,67.8827667 C164.259659,69.1316983 160.774795,69.7561547 157.033096,69.7561547 C153.291397,69.7561547 149.824874,69.168431 146.633425,67.992966 C143.441975,66.817501 140.672426,65.1094289 138.324693,62.8686987 C135.97696,60.6279685 134.142821,57.8546472 132.822221,54.5486518 C131.501622,51.2426564 130.841332,47.459185 130.841332,43.1981243 C130.841332,38.7901304 131.519963,34.8413617 132.877246,31.3516999 C134.234529,27.862038 136.123692,24.9417859 138.544792,22.5908558 C140.965891,20.2399257 143.790465,18.4400219 147.018598,17.1910903 C150.246731,15.9421587 153.731594,15.3177022 157.473294,15.3177022 C161.214993,15.3177022 164.681515,15.8870596 167.872965,17.0257913 C171.064414,18.1645231 173.833964,19.8725951 176.181697,22.1500586 C178.529429,24.4275221 180.363568,27.2192097 181.684168,30.5252052 C183.004768,33.8312006 183.665058,37.6881374 183.665058,42.0961313 Z M170.239027,42.6471278 C170.239027,39.4880655 169.8722,36.7882097 169.138533,34.5474795 C168.404867,32.3067492 167.432773,30.488479 166.222223,29.0926143 C165.011673,27.6967496 163.617728,26.6682331 162.040345,26.007034 C160.462962,25.3458349 158.830578,25.0152403 157.143145,25.0152403 C155.455712,25.0152403 153.84167,25.2907358 152.30097,25.8417351 C150.760271,26.3927343 149.403008,27.3477853 148.229142,28.7069168 C147.055275,30.0660482 146.101523,31.8843184 145.367856,34.1617819 C144.63419,36.4392455 144.267362,39.2676658 144.267362,42.6471278 C144.267362,45.7327235 144.63419,48.3591138 145.367856,50.5263775 C146.101523,52.6936412 147.073616,54.493545 148.284166,55.926143 C149.494716,57.358741 150.888662,58.4056239 152.466045,59.066823 C154.043428,59.7280221 155.675811,60.0586166 157.363244,60.0586166 C158.977311,60.0586166 160.573011,59.7647548 162.150394,59.1770223 C163.727777,58.5892898 165.103381,57.6342387 166.277248,56.3118406 C167.451114,54.9894424 168.404867,53.2079049 169.138533,50.9671747 C169.8722,48.7264444 170.239027,45.9531232 170.239027,42.6471278 Z M200.616108,68.6541618 L187.630276,68.6541618 L187.630276,16.3094959 L197.644774,16.3094959 L199.295515,23.2520516 C201.716615,20.8276549 204.321092,18.8991865 207.109024,17.4665885 C209.896957,16.0339905 213.125042,15.3177022 216.793374,15.3177022 C220.461707,15.3177022 223.54306,16.0339905 226.037526,17.4665885 C228.531992,18.8991865 230.402814,20.9378531 231.650047,23.5826495 C234.144513,21.0113197 236.895722,18.9910195 239.903754,17.5216882 C242.911787,16.0523569 246.213237,15.3177022 249.808203,15.3177022 C255.310702,15.3177022 259.492538,16.8237442 262.353838,19.8358734 C265.215137,22.8480026 266.645766,27.1457321 266.645766,32.7291911 L266.645766,68.6541618 L253.659933,68.6541618 L253.659933,34.4923798 C253.659933,31.7006504 252.999643,29.4966865 251.679043,27.880422 C250.358444,26.2641576 248.340891,25.4560375 245.626325,25.4560375 C243.498692,25.4560375 241.371091,25.9702958 239.243458,26.9988277 C237.115825,28.0273596 235.20832,29.4966688 233.520887,31.4067995 C233.594254,31.9210655 233.630937,32.3802246 233.630937,32.7842907 L233.630937,68.6541618 L220.645104,68.6541618 L220.645104,34.4923798 C220.645104,31.7006504 219.984814,29.4966865 218.664215,27.880422 C217.343615,26.2641576 215.326062,25.4560375 212.611496,25.4560375 C210.483863,25.4560375 208.374603,26.0253949 206.283654,27.1641266 C204.192704,28.3028584 202.303541,29.8639995 200.616108,31.8475967 L200.616108,68.6541618 Z M297.242945,69.7561547 C295.115312,69.7561547 293.079418,69.4990256 291.135202,68.9847597 C289.190986,68.4704937 287.558602,67.7725718 286.238002,66.890973 L286.238002,94 L273.362219,94 L273.362219,15.978898 L283.376717,15.978898 L284.917409,22.1500586 C286.971676,20.1664614 289.319373,18.5318548 291.960573,17.2461899 C294.601772,15.960525 297.60976,15.3177022 300.984626,15.3177022 C307.881091,15.3177022 313.328484,17.6134979 317.326966,22.2051583 C321.325449,26.7968186 323.32466,33.2066802 323.32466,41.4349355 C323.32466,46.1367957 322.609346,50.2508616 321.178696,53.7772567 C319.748046,57.3036519 317.840542,60.2606368 315.456126,62.6483001 C313.07171,65.0359635 310.30216,66.817501 307.147394,67.992966 C303.992628,69.168431 300.691178,69.7561547 297.242945,69.7561547 Z M297.683143,25.3458382 C295.041944,25.3458382 292.730929,25.988661 290.750029,27.2743259 C288.769129,28.5599908 287.265136,29.82727 286.238002,31.0762016 L286.238002,57.0832356 C287.485235,58.1117675 288.915864,58.8647885 290.52993,59.3423212 C292.143996,59.8198539 293.831404,60.0586166 295.592204,60.0586166 C297.353004,60.0586166 299.077094,59.7280221 300.764527,59.066823 C302.45196,58.4056239 303.974295,57.358741 305.331578,55.926143 C306.688861,54.493545 307.789345,52.6201757 308.633061,50.3059789 C309.476778,47.9917821 309.89863,45.1449954 309.89863,41.7655334 C309.89863,36.9167401 308.889853,32.9679715 306.87227,29.919109 C304.854687,26.8702466 301.791676,25.3458382 297.683143,25.3458382 Z M372.960391,45.4021102 L337.414425,45.4021102 L337.414425,45.8429074 C337.414425,50.6182341 338.900078,54.1813091 341.871427,56.5322392 C344.842777,58.8831692 348.749492,60.0586166 353.591691,60.0586166 C356.452991,60.0586166 359.002444,59.8014875 361.240127,59.2872216 C363.47781,58.7729556 365.623752,58.0750337 367.678018,57.1934349 L370.209155,66.3399766 C368.081522,67.2950419 365.550411,68.103162 362.615745,68.7643611 C359.681078,69.4255602 356.26958,69.7561547 352.381148,69.7561547 C348.492715,69.7561547 344.842779,69.2418965 341.431229,68.2133646 C338.01968,67.1848327 335.030034,65.5685925 332.462201,63.3645955 C329.894368,61.1605986 327.858474,58.368911 326.354458,54.989449 C324.850441,51.609987 324.098444,47.5693865 324.098444,42.8675264 C324.098444,38.7533987 324.722052,35.0066601 325.969285,31.6271981 C327.216518,28.2477361 328.977291,25.3458503 331.251657,22.9214537 C333.526024,20.497057 336.277232,18.6236877 339.505364,17.3012896 C342.733497,15.9788914 346.291726,15.3177022 350.180159,15.3177022 C357.149991,15.3177022 362.68909,17.4482007 366.797623,21.7092614 C370.906155,25.9703222 372.960391,31.884292 372.960391,39.4513482 L372.960391,45.4021102 Z M359.64441,36.3657679 C359.64441,34.82297 359.460996,33.3352944 359.094163,31.9026964 C358.72733,30.4700983 358.140405,29.2028191 357.333372,28.1008206 C356.526339,26.9988222 355.48088,26.135603 354.196963,25.5111372 C352.913047,24.8866714 351.390712,24.5744431 349.629912,24.5744431 C346.328413,24.5744431 343.613887,25.6764251 341.486254,27.880422 C339.358621,30.084419 338.074724,32.9863048 337.634524,36.5861665 L359.64441,36.3657679 Z M406.749004,25.7866354 L392.332529,25.7866354 L392.332529,52.014068 C392.332529,54.5119312 392.937795,56.2200032 394.148344,57.1383353 C395.358894,58.0566674 396.917912,58.5158265 398.825445,58.5158265 C400.292778,58.5158265 401.833455,58.3688956 403.447521,58.0750293 C405.061588,57.781163 406.41885,57.377103 407.51935,56.862837 L409.50024,66.119578 C408.106273,66.7073105 406.21711,67.2766678 403.832694,67.8276671 C401.448278,68.3786663 398.898825,68.6541618 396.184259,68.6541618 C390.24156,68.6541618 385.968017,67.4419816 383.3635,65.017585 C380.758984,62.5931883 379.456746,58.9566479 379.456746,54.1078546 L379.456746,25.7866354 L371.533187,25.7866354 L371.533187,16.3094959 L379.456746,16.3094959 L379.456746,0 L392.332529,0 L392.332529,16.3094959 L406.749004,16.3094959 L406.749004,25.7866354 Z M457.045032,45.4021102 L421.499066,45.4021102 L421.499066,45.8429074 C421.499066,50.6182341 422.984718,54.1813091 425.956068,56.5322392 C428.927417,58.8831692 432.834133,60.0586166 437.676332,60.0586166 C440.537631,60.0586166 443.087084,59.8014875 445.324767,59.2872216 C447.56245,58.7729556 449.708393,58.0750337 451.762659,57.1934349 L454.293796,66.3399766 C452.166163,67.2950419 449.635051,68.103162 446.700385,68.7643611 C443.765719,69.4255602 440.354221,69.7561547 436.465788,69.7561547 C432.577356,69.7561547 428.927419,69.2418965 425.51587,68.2133646 C422.104321,67.1848327 419.114674,65.5685925 416.546842,63.3645955 C413.979009,61.1605986 411.943115,58.368911 410.439098,54.989449 C408.935082,51.609987 408.183085,47.5693865 408.183085,42.8675264 C408.183085,38.7533987 408.806692,35.0066601 410.053925,31.6271981 C411.301158,28.2477361 413.061932,25.3458503 415.336298,22.9214537 C417.610664,20.497057 420.361872,18.6236877 423.590005,17.3012896 C426.818138,15.9788914 430.376367,15.3177022 434.2648,15.3177022 C441.234632,15.3177022 446.773731,17.4482007 450.882264,21.7092614 C454.990796,25.9703222 457.045032,31.884292 457.045032,39.4513482 L457.045032,45.4021102 Z M443.729051,36.3657679 C443.729051,34.82297 443.545637,33.3352944 443.178803,31.9026964 C442.81197,30.4700983 442.225046,29.2028191 441.418013,28.1008206 C440.610979,26.9988222 439.56552,26.135603 438.281604,25.5111372 C436.997687,24.8866714 435.475352,24.5744431 433.714553,24.5744431 C430.413053,24.5744431 427.698528,25.6764251 425.570895,27.880422 C423.443262,30.084419 422.159365,32.9863048 421.719165,36.5861665 L443.729051,36.3657679 Z M473.886033,68.6541618 L460.9002,68.6541618 L460.9002,16.3094959 L471.024747,16.3094959 L472.675489,23.2520516 C475.169955,20.7541884 477.847798,18.8073536 480.709097,17.4114889 C483.570397,16.0156241 486.761798,15.3177022 490.283398,15.3177022 C495.93263,15.3177022 500.29788,16.8788433 503.37928,20.0011723 C506.460679,23.1235013 508.001356,27.5497955 508.001356,33.2801876 L508.001356,68.6541618 L495.015523,68.6541618 L495.015523,34.8229777 C495.015523,32.0312483 494.300209,29.7721853 492.869559,28.045721 C491.438909,26.3192567 489.292967,25.4560375 486.431668,25.4560375 C484.304035,25.4560375 482.139751,26.0253949 479.938751,27.1641266 C477.737752,28.3028584 475.720199,29.8272667 473.886033,31.7373974 L473.886033,68.6541618 Z M541.45982,60.0586166 C543.807553,60.0586166 545.88013,59.7831212 547.677613,59.2321219 C549.475096,58.6811227 550.997431,58.0750326 552.244665,57.4138335 L554.775801,66.5603751 C553.161735,67.3685074 551.034134,68.103162 548.392934,68.7643611 C545.751735,69.4255602 542.853796,69.7561547 539.69903,69.7561547 C535.810597,69.7561547 532.179002,69.1867974 528.804136,68.0480657 C525.42927,66.9093339 522.494648,65.2012619 520.000182,62.9237984 C517.505716,60.6463348 515.543187,57.8179145 514.112537,54.4384525 C512.681888,51.0589905 511.966573,47.1285883 511.966573,42.6471278 C511.966573,38.5330001 512.645205,34.7862615 514.002488,31.4067995 C515.359771,28.0273375 517.267275,25.1438181 519.725058,22.7561547 C522.182841,20.3684914 525.117463,18.5318548 528.529013,17.2461899 C531.940562,15.960525 535.700546,15.3177022 539.809079,15.3177022 C542.083445,15.3177022 544.431143,15.5380986 546.852242,15.978898 C549.273342,16.4196974 551.877819,17.301283 554.665752,18.6236811 L551.914516,27.880422 C550.227083,26.9253567 548.502993,26.1907021 546.742193,25.6764361 C544.981393,25.1621702 543.147255,24.905041 541.239722,24.905041 C536.397523,24.905041 532.509148,26.3927167 529.574482,29.3681125 C526.639816,32.3435084 525.172505,36.6596044 525.172505,42.3165299 C525.172505,45.6225253 525.649381,48.4142129 526.603148,50.6916764 C527.556914,52.96914 528.804128,54.8057765 530.344828,56.2016413 C531.885528,57.597506 533.62796,58.5892898 535.572176,59.1770223 C537.516392,59.7647548 539.478921,60.0586166 541.45982,60.0586166 Z M601,45.4021102 L565.454034,45.4021102 L565.454034,45.8429074 C565.454034,50.6182341 566.939687,54.1813091 569.911036,56.5322392 C572.882386,58.8831692 576.789101,60.0586166 581.6313,60.0586166 C584.4926,60.0586166 587.042053,59.8014875 589.279736,59.2872216 C591.517419,58.7729556 593.663361,58.0750337 595.717627,57.1934349 L598.248764,66.3399766 C596.121131,67.2950419 593.59002,68.103162 590.655354,68.7643611 C587.720688,69.4255602 584.309189,69.7561547 580.420757,69.7561547 C576.532324,69.7561547 572.882388,69.2418965 569.470839,68.2133646 C566.059289,67.1848327 563.069643,65.5685925 560.50181,63.3645955 C557.933977,61.1605986 555.898083,58.368911 554.394067,54.989449 C552.89005,51.609987 552.138053,47.5693865 552.138053,42.8675264 C552.138053,38.7533987 552.761661,35.0066601 554.008894,31.6271981 C555.256127,28.2477361 557.0169,25.3458503 559.291266,22.9214537 C561.565633,20.497057 564.316841,18.6236877 567.544974,17.3012896 C570.773106,15.9788914 574.331336,15.3177022 578.219768,15.3177022 C585.1896,15.3177022 590.728699,17.4482007 594.837232,21.7092614 C598.945765,25.9703222 601,31.884292 601,39.4513482 L601,45.4021102 Z M587.684019,36.3657679 C587.684019,34.82297 587.500605,33.3352944 587.133772,31.9026964 C586.766939,30.4700983 586.180014,29.2028191 585.372981,28.1008206 C584.565948,26.9988222 583.520489,26.135603 582.236572,25.5111372 C580.952656,24.8866714 579.430321,24.5744431 577.669521,24.5744431 C574.368022,24.5744431 571.653496,25.6764251 569.525863,27.880422 C567.39823,30.084419 566.114333,32.9863048 565.674133,36.5861665 L587.684019,36.3657679 Z" id="competence" fill="#FFFFFF"></path>
                <g id="Group-2">
                    <g id="Group" fill="#FFFFFF">
                        <circle id="Oval" cx="35" cy="35" r="35"></circle>
                        <rect id="Rectangle" x="32.0833333" y="0" width="37.9166667" height="37.9166667"></rect>
                    </g>
                    <path d="M38.8006119,19.6656119 L40.0895965,15.987953 L31.8087329,15.987953 L26.3337818,32.6463908 L24.1438013,40.5954379 L23.9384906,40.5954379 L21.6800733,32.715513 L15.5891901,15.987953 L6.82926829,15.987953 L20.3113355,48.7518515 L19.9691511,49.926928 C19.1935291,52.5075011 17.9502714,54.6272258 16.2393406,56.2861657 C14.5284098,57.9451056 12.4639176,59.2353728 10.0458021,60.157006 L13.4676466,66.5853659 C17.3457563,65.2489976 20.4025735,63.1983944 22.6381897,60.4334946 C24.873806,57.6685948 26.6531473,54.3738054 27.9762671,50.5490274 L33.7634305,34.0374164 C33.8682232,36.2323961 34.2695849,38.2110223 34.967523,39.9733386 C35.7887697,42.0470134 36.9293732,43.7865701 38.3893674,45.1920608 C39.8493617,46.5975515 41.5716729,47.6689341 43.5563526,48.4062407 C45.5410323,49.1435473 47.6967728,49.5121951 50.0236386,49.5121951 C52.3505045,49.5121951 54.517651,49.1205069 56.5251431,48.3371186 C58.5326352,47.5537303 60.2891645,46.4247465 61.7947836,44.9501333 C63.3004027,43.4755201 64.4752242,41.6553217 65.3192834,39.4894836 C66.1633426,37.3236454 66.5853659,34.8813539 66.5853659,32.1625358 C66.5853659,29.397636 66.1747486,26.978385 65.3535018,24.9047102 C64.5322551,22.8310354 63.3916516,21.0799584 61.9316574,19.6514269 C60.4716631,18.2228953 58.7493519,17.1515127 56.7646722,16.437247 C54.7799925,15.7229812 52.6242521,15.3658537 50.2973862,15.3658537 C47.9705203,15.3658537 45.8033738,15.7575419 43.7958817,16.5409302 C41.9091221,17.2772047 40.2440467,18.3187559 38.8006119,19.6656119 Z M58.2360654,32.5081465 C58.2360654,30.526635 58.0079447,28.8331593 57.5516965,27.4276686 C57.0954482,26.0221779 56.4909284,24.8816738 55.7381189,24.0061222 C54.9853093,23.1305707 54.1184507,22.485437 53.1375171,22.0707021 C52.1565834,21.6559671 51.1414464,21.4486027 50.0920755,21.4486027 C49.0427046,21.4486027 48.0389736,21.6214064 47.0808524,21.9670189 C46.1227311,22.3126313 45.2786846,22.911684 44.5486875,23.7641947 C43.8186903,24.6167055 43.2255766,25.7572095 42.7693284,27.1857411 C42.3130801,28.6142726 42.0849595,30.38839 42.0849595,32.5081465 C42.0849595,34.4435764 42.3130801,36.0909711 42.7693284,37.4503802 C43.2255766,38.8097892 43.8300964,39.938773 44.5829059,40.8373655 C45.3357155,41.7359579 46.2025741,42.3926117 47.1835077,42.8073467 C48.1644414,43.2220817 49.1795784,43.429446 50.2289493,43.429446 C51.2326954,43.429446 52.2250203,43.2451221 53.205954,42.8764688 C54.1868876,42.5078155 55.0423402,41.9087629 55.7723373,41.079293 C56.5023345,40.249823 57.0954482,39.1323595 57.5516965,37.7268688 C58.0079447,36.321378 58.2360654,34.5818214 58.2360654,32.5081465 Z" id="yo-copy" fill="#4EB4F9"></path>
                </g>
            </g>
        </g>
    </g>
</svg>